<?xml version="1.0" standalone="no"?>
<!DOCTYPE svg PUBLIC "-//W3C//DTD SVG 20010904//EN"
 "http://www.w3.org/TR/2001/REC-SVG-20010904/DTD/svg10.dtd">
<svg version="1.0" xmlns="http://www.w3.org/2000/svg"
 width="1024.000000pt" height="1024.000000pt" viewBox="0 0 1024.000000 1024.000000"
 preserveAspectRatio="xMidYMid meet">

<g transform="translate(0.000000,1024.000000) scale(0.100000,-0.100000)"
fill="#000000" stroke="none">
<path d="M3107 7588 c-77 -74 -127 -315 -127 -616 0 -381 81 -696 256 -998 37
-64 68 -131 73 -158 23 -125 -64 -286 -268 -495 -50 -52 -89 -96 -86 -99 2 -3
48 -17 100 -32 53 -14 96 -30 97 -35 0 -5 -36 -30 -81 -55 -44 -25 -81 -48
-81 -52 -1 -23 661 -432 757 -468 36 -13 100 -23 194 -30 245 -19 383 -75 527
-214 114 -110 189 -242 266 -465 46 -132 79 -195 137 -256 72 -76 136 -108
230 -113 93 -5 153 12 224 66 69 52 117 126 165 251 116 303 174 407 291 521
125 122 261 182 451 200 200 19 246 29 320 66 130 66 546 322 651 402 l58 44
-81 47 c-45 26 -81 51 -80 56 1 6 45 22 97 37 53 15 98 29 100 32 3 2 -38 47
-90 100 -111 111 -184 206 -227 294 -58 119 -57 209 3 310 188 313 271 598
284 977 11 338 -49 639 -139 695 -59 38 -116 25 -249 -55 -233 -139 -537 -365
-809 -600 -74 -64 -144 -120 -155 -124 -11 -5 -56 -11 -100 -15 -44 -4 -177
-18 -295 -32 -118 -13 -257 -29 -309 -35 -99 -11 -109 -11 -411 26 -107 13
-251 29 -320 36 -147 13 -157 17 -212 67 -296 266 -775 620 -978 724 -79 40
-137 39 -183 -4z m330 -320 c297 -293 505 -571 642 -858 47 -99 111 -270 111
-296 0 -26 -241 83 -355 159 -123 84 -212 192 -203 249 6 41 53 63 131 63 l72
0 -1 32 c-2 40 -102 191 -215 327 -42 50 -154 167 -248 258 -94 91 -171 171
-171 178 0 26 22 50 46 50 20 0 65 -38 191 -162z m3598 142 c13 -14 16 -25 9
-39 -5 -10 -63 -68 -129 -129 -173 -158 -317 -322 -427 -485 -77 -115 -95
-155 -75 -174 11 -11 21 -12 58 -2 52 14 85 8 122 -22 32 -25 34 -47 7 -100
-45 -88 -151 -174 -309 -253 -120 -59 -220 -100 -228 -93 -12 13 61 213 123
336 134 265 312 500 590 779 125 125 209 202 221 202 11 0 28 -9 38 -20z"/>
</g>
</svg>
